<svg xmlns="http://www.w3.org/2000/svg" fill="none" viewBox="0 0 24 24" id="Call-Medicine--Streamline-Solar" height="24" width="24">
  <desc>
    Call Medicine Streamline Icon: https://streamlinehq.com
  </desc>
  <g id="Line Duotone/Call/Call Medicine">
    <path id="Vector" fill="#bb25a6" d="m14.6445 16.5437 0.4555 -0.4795 -1.0876 -1.033 -0.4555 0.4795 1.0876 1.033Zm1.9542 -0.6814 1.9105 1.0997 0.7483 -1.3 -1.9105 -1.0997 -0.7483 1.3Zm2.2792 3.3796 -1.4206 1.4956 1.0876 1.033 1.4206 -1.4956 -1.0876 -1.033Zm-2.2753 1.9748c-1.435 0.1417 -5.1793 0.0208 -9.24342 -4.258l-1.08757 1.033c4.42929 4.6633 8.65449 4.8978 10.47829 4.7178l-0.1473 -1.4928Zm-9.24342 -4.258c-3.87612 -4.0809 -4.52629 -7.52312 -4.60733 -9.03294l-1.49784 0.08039c0.09925 1.84923 0.88442 5.63415 5.0176 9.98555l1.08757 -1.033Zm1.37535 -6.6371 0.28681 -0.302 -1.08758 -1.03298 -0.28682 0.30196 1.08759 1.03302Zm0.51215 -4.06146 -1.261 -1.78349 -1.22479 0.86597L8.02188 7.1261l1.2248 -0.86596ZM3.71769 4.09215 2.1481 5.74464l1.08758 1.03303 1.5696 -1.65249 -1.08759 -1.03303Zm4.47304 5.71294c-0.54379 -0.51651 -0.54447 -0.51578 -0.54517 -0.51505 -0.00024 0.00026 -0.00094 0.001 -0.00141 0.0015 -0.00095 0.00102 -0.00193 0.00205 -0.00291 0.00311 -0.00196 0.00212 -0.00401 0.00433 -0.00611 0.00664 -0.00419 0.00461 -0.00864 0.0096 -0.01332 0.01498 -0.00935 0.01076 -0.01963 0.02306 -0.03062 0.03695 -0.02198 0.02778 -0.04685 0.06192 -0.07294 0.10268 -0.05231 0.08176 -0.10905 0.18943 -0.15709 0.32445 -0.09771 0.27455 -0.15095 0.63815 -0.08442 1.09225 0.13071 0.8921 0.71528 2.0918 2.24263 3.6998l1.08753 -1.033c-1.4276 -1.5031 -1.77925 -2.4288 -1.846 -2.8843 -0.0322 -0.2197 0.00051 -0.3355 0.01345 -0.3719 0.00727 -0.0204 0.01203 -0.0261 0.00737 -0.0188 -0.00225 0.0035 -0.00675 0.0101 -0.01431 0.0197 -0.00379 0.0047 -0.00833 0.0103 -0.01378 0.0165 -0.00271 0.0032 -0.00567 0.0065 -0.00884 0.01 -0.00159 0.0017 -0.00324 0.0035 -0.00495 0.0053 -0.00085 0.001 -0.00172 0.0019 -0.00261 0.0028 -0.00044 0.0005 -0.00112 0.0012 -0.00134 0.0015 -0.00068 0.0007 -0.00136 0.0014 -0.54516 -0.51511Zm1.32864 4.76731c1.52283 1.6033 2.67293 2.2336 3.55043 2.3761 0.4503 0.0731 0.8148 0.0147 1.0908 -0.0941 0.1349 -0.0532 0.2416 -0.1157 0.3217 -0.1725 0.04 -0.0284 0.0733 -0.0553 0.1001 -0.0788 0.0135 -0.0118 0.0253 -0.0228 0.0356 -0.0328 0.0052 -0.0049 0.01 -0.0097 0.0144 -0.0141 0.0022 -0.0022 0.0043 -0.0044 0.0063 -0.0065l0.003 -0.003c0.0005 -0.0005 0.0012 -0.0013 0.0014 -0.0015 0.0007 -0.0008 0.0014 -0.0015 -0.5424 -0.518 -0.5438 -0.5165 -0.5431 -0.5172 -0.5424 -0.5179 0.0002 -0.0003 0.0009 -0.001 0.0013 -0.0015l0.0027 -0.0027c0.0018 -0.0018 0.0035 -0.0036 0.0051 -0.0053 0.0034 -0.0033 0.0066 -0.0065 0.0096 -0.0094 0.006 -0.0058 0.0115 -0.0108 0.0163 -0.015 0.0095 -0.0084 0.0166 -0.0138 0.0212 -0.0171 0.0094 -0.0066 0.0084 -0.0043 -0.0043 0.0007 -0.0193 0.0076 -0.1102 0.0397 -0.2999 0.0089 -0.4026 -0.0654 -1.2712 -0.4207 -2.7034 -1.9285l-1.08753 1.033ZM7.98568 4.47665c-1.01358 -1.43358 -3.04181 -1.67544 -4.26799 -0.3845l1.08759 1.03303c0.52284 -0.55045 1.44326 -0.50721 1.95561 0.21744l1.22479 -0.86597ZM2.75185 7.92576c-0.02143 -0.3993 0.15244 -0.7992 0.48383 -1.14809L2.1481 5.74464c-0.53585 0.56415 -0.94313 1.34784 -0.89409 2.26151l1.49784 -0.08039ZM17.4573 20.7375c-0.279 0.2938 -0.5709 0.4512 -0.8547 0.4792l0.1473 1.4928c0.7471 -0.0738 1.3517 -0.4722 1.795 -0.939l-1.0876 -1.033ZM9.02134 10.0196c0.96758 -1.01863 1.03606 -2.6128 0.22534 -3.75946l-1.2248 0.86596c0.42214 0.59707 0.35742 1.39145 -0.08812 1.86052l1.08758 1.03298Zm9.48786 6.9424c0.8208 0.4725 0.9815 1.6348 0.3687 2.2799l1.0876 1.033c1.3049 -1.3739 0.9249 -3.673 -0.708 -4.6129l-0.7483 1.3ZM15.1 16.0642c0.3854 -0.4058 0.986 -0.497 1.4987 -0.2019l0.7483 -1.3c-1.0985 -0.6323 -2.4609 -0.451 -3.3346 0.4689l1.0876 1.033Z" stroke-width="1.5"></path>
    <path id="Vector_2" stroke="#2f0d51" d="M17 12c2.7614 0 5 -2.23858 5 -5s-2.2386 -5 -5 -5 -5 2.23858 -5 5c0 0.79984 0.1878 1.55582 0.5217 2.22624 0.0888 0.17816 0.1183 0.38179 0.0669 0.57407l-0.2978 1.11299c-0.1293 0.4832 0.3127 0.9252 0.7959 0.7959l1.113 -0.2978c0.1923 -0.0514 0.3959 -0.0219 0.5741 0.0669C15.4442 11.8122 16.2002 12 17 12Z" stroke-width="1.5"></path>
    <path id="Vector_3" stroke="#2f0d51" stroke-linecap="round" d="M17 9V5m2 2h-4" stroke-width="1.5"></path>
  </g>
</svg>