<svg xmlns="http://www.w3.org/2000/svg" fill="none" viewBox="0 0 24 24" id="User-Plus--Streamline-Solar" height="24" width="24">
  <desc>
    User Plus Streamline Icon: https://streamlinehq.com
  </desc>
  <g id="Line Duotone/Users/User Plus">
    <path id="Vector" stroke="#2f0d51" d="M12 10c2.2091 0 4 -1.79086 4 -4s-1.7909 -4 -4 -4C9.79086 2 8 3.79086 8 6s1.79086 4 4 4Z" stroke-width="1.5"></path>
    <path id="Vector_2" stroke="#bb25a6" d="M15 13.3271C14.0736 13.1162 13.0609 13 12 13c-4.41828 0 -8 2.0147 -8 4.5S4 22 12 22c5.6874 0 7.3315 -1.0183 7.8068 -2.5" stroke-width="1.5"></path>
    <path id="Vector_3" stroke="#2f0d51" d="M18 20c2.2091 0 4 -1.7909 4 -4 0 -2.2091 -1.7909 -4 -4 -4 -2.2091 0 -4 1.7909 -4 4 0 2.2091 1.7909 4 4 4Z" stroke-width="1.5"></path>
    <path id="Vector_4" stroke="#2f0d51" stroke-linecap="round" stroke-linejoin="round" d="M18 14.6665v2.6667" stroke-width="1.5"></path>
    <path id="Vector_5" stroke="#2f0d51" stroke-linecap="round" stroke-linejoin="round" d="M16.6665 16h2.6667" stroke-width="1.5"></path>
  </g>
</svg>