<svg xmlns="http://www.w3.org/2000/svg" fill="none" viewBox="0 0 24 24" id="Paperclip--Streamline-Solar" height="24" width="24">
  <desc>
    Paperclip Streamline Icon: https://streamlinehq.com
  </desc>
  <g id="Line Duotone/Messages Conversation/Paperclip">
    <path id="Vector" fill="#bb25a6" d="M19.5296 3.3625c-0.2992 -0.28642 -0.774 -0.27604 -1.0604 0.02318 -0.2864 0.29923 -0.276 0.77399 0.0232 1.06041l1.0372 -1.08359Zm-1.0372 9.1953 -7.9481 7.608 1.0372 1.0836 7.9481 -7.608 -1.0372 -1.0836ZM5.06299 15.0097l7.83371 -7.49851 -1.0372 -1.08359 -7.83374 7.4986 1.03723 1.0835ZM16.3275 6.4276c-1.2374 -1.18447 -3.2306 -1.18447 -4.468 0l1.0372 1.08359c0.6574 -0.62925 1.7362 -0.62925 2.3936 0l1.0372 -1.08359ZM5.06299 20.1658c-1.49154 -1.4277 -1.49154 -3.7283 0 -5.1561l-1.03723 -1.0835c-2.10856 2.0184 -2.10856 5.3049 0 7.3232l1.03723 -1.0836Zm5.48131 0c-1.51002 1.4454 -3.97128 1.4454 -5.48131 0l-1.03723 1.0836c2.09006 2.0006 5.46571 2.0006 7.55574 0l-1.0372 -1.0836Zm7.9481 -15.71971c2.3442 2.2439 2.3442 5.86781 0 8.11171l1.0372 1.0836c2.9612 -2.8345 2.9612 -7.44437 0 -10.2789l-1.0372 1.08359Z" stroke-width="1.5"></path>
    <path id="Vector_2" stroke="#2f0d51" stroke-linecap="round" d="m7.9175 17.8068 7.8909 -7.5533c0.9474 -0.90682 0.9474 -2.37713 0 -3.28399M3 10.0346l6.40419 -6.13019c2.65271 -2.53921 6.95361 -2.53921 9.60631 0" stroke-width="1.5"></path>
  </g>
</svg>