<svg xmlns="http://www.w3.org/2000/svg" fill="none" viewBox="0 0 24 24" id="Refresh-Circle--Streamline-Solar" height="24" width="24">
  <desc>
    Refresh Circle Streamline Icon: https://streamlinehq.com
  </desc>
  <g id="Line Duotone/Arrows/Refresh Circle">
    <path id="Vector" stroke="#bb25a6" d="M12 22c5.5228 0 10 -4.4772 10 -10 0 -5.52285 -4.4772 -10 -10 -10C6.47715 2 2 6.47715 2 12c0 5.5228 4.47715 10 10 10Z" stroke-width="1.5"></path>
    <path id="Vector_2" fill="#2f0d51" d="m7.37758 12.5556 -0.56148 0.4972c0.13528 0.1528 0.32698 0.2438 0.53087 0.2521 0.20389 0.0084 0.40237 -0.0668 0.54966 -0.208l-0.51905 -0.5413Zm2.14149 -1.0142c0.29899 -0.2867 0.30898 -0.7615 0.02231 -1.0605 -0.28666 -0.2989 -0.76143 -0.3089 -1.06042 -0.0223l1.03811 1.0828Zm-2.95758 -1.0386c-0.27461 -0.3101 -0.74861 -0.3389 -1.05871 -0.0643 -0.3101 0.2746 -0.33886 0.7486 -0.06425 1.0587l1.12296 -0.9944Zm8.37021 -1.4935c0.2813 0.30407 0.7558 0.32253 1.0599 0.04125 0.304 -0.28128 0.3225 -0.75579 0.0412 -1.05985l-1.1011 1.0186ZM12.0437 6.25c-2.98567 0 -5.41612 2.403 -5.41612 5.3796h1.5c0 -2.13709 1.74775 -3.8796 3.91612 -3.8796v-1.5Zm-5.41612 5.3796v0.926h1.5v-0.926h-1.5Zm1.26905 1.4673 1.62244 -1.5555 -1.03811 -1.0828 -1.62244 1.5556 1.03811 1.0827Zm0.04243 -1.0386 -1.37757 -1.5555 -1.12296 0.9944 1.37757 1.5556 1.12296 -0.9945Zm8.09374 -4.0676C15.0432 6.9209 13.6212 6.25 12.0437 6.25v1.5c1.1442 0 2.1718 0.48504 2.888 1.2593l1.1011 -1.0186Z" stroke-width="1.5"></path>
    <path id="Vector_3" fill="#2f0d51" d="m16.6188 11.4443 0.5607 -0.4981c-0.1355 -0.1525 -0.3272 -0.2432 -0.531 -0.2513 -0.2038 -0.0081 -0.4021 0.0672 -0.5492 0.2085l0.5195 0.5409Zm-2.1383 1.0138c-0.2988 0.2869 -0.3083 0.7617 -0.0214 1.0604 0.2869 0.2988 0.7617 0.3084 1.0604 0.0215l-1.039 -1.0819Zm2.9588 1.0391c0.2751 0.3096 0.7492 0.3376 1.0588 0.0625 0.3097 -0.2751 0.3377 -0.7491 0.0626 -1.0588l-1.1214 0.9963Zm-8.39242 1.5075c-0.28346 -0.302 -0.75809 -0.3171 -1.06013 -0.0336 -0.30203 0.2834 -0.31709 0.7581 -0.03363 1.0601l1.09376 -1.0265Zm2.88792 2.7452c2.9928 0 5.434 -2.4003 5.434 -5.3796h-1.5c0 2.1344 -1.753 3.8796 -3.934 3.8796v1.5Zm5.434 -5.3796v-0.926h-1.5v0.926h1.5Zm-1.2695 -1.4669 -1.6188 1.5547 1.039 1.0819 1.6188 -1.5547 -1.039 -1.0819Zm-0.0412 1.0391 1.3812 1.5547 1.1214 -0.9963 -1.3812 -1.5547 -1.1214 0.9963Zm-8.10498 4.0887c0.99231 1.0573 2.41038 1.7187 3.98168 1.7187v-1.5c-1.1428 0 -2.16934 -0.4795 -2.88792 -1.2452l-1.09376 1.0265Z" stroke-width="1.5"></path>
  </g>
</svg>