<svg xmlns="http://www.w3.org/2000/svg" fill="none" viewBox="0 0 24 24" id="User-Block--Streamline-Solar" height="24" width="24">
  <desc>
    User Block Streamline Icon: https://streamlinehq.com
  </desc>
  <g id="Line Duotone/Users/User Block">
    <path id="Vector" stroke="#2f0d51" d="M12 10c2.2091 0 4 -1.79086 4 -4s-1.7909 -4 -4 -4C9.79086 2 8 3.79086 8 6s1.79086 4 4 4Z" stroke-width="1.5"></path>
    <path id="Vector_2" stroke="#bb25a6" d="M15 13.3271C14.0736 13.1162 13.0609 13 12 13c-4.41828 0 -8 2.0147 -8 4.5S4 22 12 22c5.6874 0 7.3315 -1.0183 7.8068 -2.5" stroke-width="1.5"></path>
    <path id="Vector_3" stroke="#2f0d51" stroke-linejoin="round" d="M15.1715 18.8284C15.8954 19.5523 16.8954 20 18 20c2.2091 0 4 -1.7909 4 -4 0 -1.1046 -0.4477 -2.1046 -1.1716 -2.8285m-5.6569 5.6569C14.4477 18.1045 14 17.1046 14 16c0 -2.2091 1.7909 -4 4 -4 1.1046 0 2.1045 0.4477 2.8284 1.1715m-5.6569 5.6569 5.6569 -5.6569" stroke-width="1.5"></path>
  </g>
</svg>