<svg xmlns="http://www.w3.org/2000/svg" fill="none" viewBox="0 0 24 24" id="User-Id--Streamline-Solar" height="24" width="24">
  <desc>
    User Id Streamline Icon: https://streamlinehq.com
  </desc>
  <g id="Line Duotone/Users/User Id">
    <path id="Vector" stroke="#2f0d51" d="M9 11c1.1046 0 2 -0.8954 2 -2 0 -1.10457 -0.8954 -2 -2 -2 -1.10457 0 -2 0.89543 -2 2 0 1.1046 0.89543 2 2 2Z" stroke-width="1.5"></path>
    <path id="Vector_2" stroke="#2f0d51" d="M13 15c0 1.1046 0 2 -4 2s-4 -0.8954 -4 -2 1.79086 -2 4 -2c2.2091 0 4 0.8954 4 2Z" stroke-width="1.5"></path>
    <path id="Vector_3" stroke="#bb25a6" d="M2 12c0 -3.77124 0 -5.65685 1.17157 -6.82843C4.34315 4 6.22876 4 10 4h4c3.7712 0 5.6569 0 6.8284 1.17157C22 6.34315 22 8.22876 22 12c0 3.7712 0 5.6569 -1.1716 6.8284C19.6569 20 17.7712 20 14 20h-4c-3.77124 0 -5.65685 0 -6.82843 -1.1716C2 17.6569 2 15.7712 2 12Z" stroke-width="1.5"></path>
    <path id="Vector_4" stroke="#2f0d51" stroke-linecap="round" d="M19 12h-4" stroke-width="1.5"></path>
    <path id="Vector_5" stroke="#2f0d51" stroke-linecap="round" d="M19 9h-5" stroke-width="1.5"></path>
    <path id="Vector_6" stroke="#bb25a6" stroke-linecap="round" d="M19 15h-3" stroke-width="1.5"></path>
  </g>
</svg>