<svg xmlns="http://www.w3.org/2000/svg" fill="none" viewBox="0 0 24 24" id="Chat-Round-Like--Streamline-Solar" height="24" width="24">
  <desc>
    Chat Round Like Streamline Icon: https://streamlinehq.com
  </desc>
  <g id="Line Duotone/Messages Conversation/Chat Round Like">
    <path id="Vector" fill="#bb25a6" d="m12 9.49956 -0.5359 0.52464c0.1411 0.1441 0.3342 0.2253 0.5359 0.2253 0.2017 0 0.3948 -0.0812 0.5359 -0.2253L12 9.49956Zm-1.4855 4.87064c-0.58158 -0.4948 -1.16541 -1.0678 -1.59815 -1.6605 -0.44159 -0.6047 -0.66635 -1.1488 -0.66635 -1.6016h-1.5c0 0.9157 0.43465 1.7737 0.95492 2.4862 0.52911 0.7246 1.20956 1.384 1.83767 1.9184l0.97191 -1.1425ZM8.25 11.1081c0 -1.1077 0.49454 -1.69096 1.00333 -1.88121 0.51719 -0.19339 1.34177 -0.09017 2.21077 0.79731l1.0718 -1.04935C11.38 7.79431 9.95456 7.36325 8.72797 7.8219 7.49299 8.28368 6.75 9.53873 6.75 11.1081h1.5Zm6.2074 4.4046c0.6281 -0.5343 1.3086 -1.1938 1.8377 -1.9184 0.5203 -0.7125 0.9549 -1.5705 0.9549 -2.4862h-1.5c0 0.4528 -0.2248 0.9969 -0.6663 1.6016 -0.4328 0.5927 -1.0166 1.1657 -1.5982 1.6605l0.9719 1.1425Zm2.7926 -4.4046c0 -1.56938 -0.743 -2.82442 -1.978 -3.28621 -1.2266 -0.45864 -2.652 -0.02758 -3.8079 1.15296l1.0718 1.04935c0.869 -0.88748 1.6936 -0.9907 2.2108 -0.79731 0.5088 0.19024 1.0033 0.77351 1.0033 1.88121h1.5Zm-7.70741 4.4046c0.77951 0.6631 1.40021 1.2301 2.45741 1.2301v-1.5c-0.414 0 -0.6172 -0.134 -1.4855 -0.8726l-0.97191 1.1425Zm3.94291 -1.1425c-0.8683 0.7386 -1.0715 0.8726 -1.4855 0.8726v1.5c1.0572 0 1.6779 -0.567 2.4574 -1.2301l-0.9719 -1.1425Z" stroke-width="1.5"></path>
    <path id="Vector_2" stroke="#2f0d51" d="M12 22c5.5228 0 10 -4.4772 10 -10 0 -5.52285 -4.4772 -10 -10 -10C6.47715 2 2 6.47715 2 12c0 1.5997 0.37562 3.1116 1.04346 4.4525 0.17748 0.3563 0.23655 0.7636 0.13366 1.1481l-0.59561 2.2261c-0.25856 0.9663 0.6255 1.8503 1.59184 1.5918l2.22604 -0.5956c0.38454 -0.1029 0.79182 -0.0438 1.14814 0.1336C8.88837 21.6244 10.4003 22 12 22Z" stroke-width="1.5"></path>
  </g>
</svg>