<svg xmlns="http://www.w3.org/2000/svg" fill="none" viewBox="0 0 24 24" id="Album--Streamline-Solar" height="24" width="24">
  <desc>
    Album Streamline Icon: https://streamlinehq.com
  </desc>
  <g id="Line Duotone/Video Audio Sound/Album">
    <path id="Vector" stroke="#bb25a6" d="M19.5617 7c0.2287 -1.30477 -0.7754 -2.5 -2.1 -2.5H6.53788C5.21323 4.5 4.20922 5.69523 4.43784 7M17.4999 4.5c0.0284 -0.25908 0.0426 -0.38865 0.0428 -0.49565 0.0023 -1.02363 -0.7688 -1.88371 -1.7866 -1.99293C15.6497 2 15.5194 2 15.2588 2H8.74099c-0.26064 0 -0.39097 0 -0.49737 0.01142 -1.01778 0.10922 -1.78881 0.9693 -1.78658 1.99292 0.00023 0.10701 0.01442 0.23656 0.04279 0.49566" stroke-width="1.5"></path>
    <path id="Vector_2" stroke="#bb25a6" d="M16.5 13c0.8284 0 1.5 -0.6716 1.5 -1.5s-0.6716 -1.5 -1.5 -1.5 -1.5 0.6716 -1.5 1.5 0.6716 1.5 1.5 1.5Z" stroke-width="1.5"></path>
    <path id="Vector_3" stroke="#bb25a6" stroke-linecap="round" d="m19.9999 20 -2.8842 -2.1486c-0.9301 -0.6928 -2.3153 -0.7618 -3.3391 -0.1663l-0.2668 0.1552c-0.7114 0.4139 -1.6794 0.3445 -2.2942 -0.1645l-3.83822 -3.1769c-0.76608 -0.6341 -1.99493 -0.668 -2.81028 -0.0775l-1.32394 0.9589" stroke-width="1.5"></path>
    <path id="Vector_4" stroke="#2f0d51" d="M2.38351 13.793c-0.44603 -3.1636 -0.66904 -4.74535 0.27881 -5.76917C3.61017 7 5.29758 7 8.67239 7h6.65521c3.3748 0 5.0622 0 6.0101 1.02383 0.9478 1.02382 0.7248 2.60557 0.2788 5.76917l-0.423 3c-0.3498 2.4809 -0.5246 3.7213 -1.4218 4.4642C18.8745 22 17.5512 22 14.9046 22H9.09536c-2.64655 0 -3.96983 0 -4.86702 -0.7428 -0.89719 -0.7429 -1.07208 -1.9833 -1.42186 -4.4642l-0.42297 -3Z" stroke-width="1.5"></path>
  </g>
</svg>