<svg xmlns="http://www.w3.org/2000/svg" fill="none" viewBox="0 0 24 24" id="Full-Screen-Square--Streamline-Solar" height="24" width="24">
  <desc>
    Full Screen Square Streamline Icon: https://streamlinehq.com
  </desc>
  <g id="Line Duotone/Video Audio Sound/Full Screen Square">
    <path id="Vector" stroke="#bb25a6" d="M2 12c0 -4.71405 0 -7.07107 1.46447 -8.53553C4.92893 2 7.28595 2 12 2c4.714 0 7.0711 0 8.5355 1.46447C22 4.92893 22 7.28595 22 12c0 4.714 0 7.0711 -1.4645 8.5355C19.0711 22 16.714 22 12 22c-4.71405 0 -7.07107 0 -8.53553 -1.4645C2 19.0711 2 16.714 2 12Z" stroke-width="1.5"></path>
    <path id="Vector_2" stroke="#2f0d51" stroke-linecap="round" d="M6 9.99739c0.01447 -1.70656 0.10921 -2.64735 0.72963 -3.26776 0.62041 -0.62042 1.5612 -0.71516 3.26776 -0.72963" stroke-width="1.5"></path>
    <path id="Vector_3" stroke="#2f0d51" stroke-linecap="round" d="M6 14.0005c0.01447 1.7065 0.10921 2.6473 0.72963 3.2677 0.62041 0.6204 1.5612 0.7152 3.26776 0.7296" stroke-width="1.5"></path>
    <path id="Vector_4" stroke="#2f0d51" stroke-linecap="round" d="M17.9974 9.99739c-0.0145 -1.70656 -0.1093 -2.64735 -0.7297 -3.26776C16.6473 6.10921 15.7065 6.01447 14 6" stroke-width="1.5"></path>
    <path id="Vector_5" stroke="#2f0d51" stroke-linecap="round" d="M17.9974 14.0005c-0.0145 1.7065 -0.1093 2.6473 -0.7297 3.2677 -0.6204 0.6204 -1.5612 0.7152 -3.2677 0.7296" stroke-width="1.5"></path>
  </g>
</svg>