<svg xmlns="http://www.w3.org/2000/svg" fill="none" viewBox="0 0 24 24" id="Map-Point-Favourite--Streamline-Solar" height="24" width="24">
  <desc>
    Map Point Favourite Streamline Icon: https://streamlinehq.com
  </desc>
  <g id="Line Duotone/Map Location/Map Point Favourite">
    <path id="Vector" stroke="#bb25a6" d="M4 10.1433C4 5.64588 7.58172 2 12 2c4.4183 0 8 3.64588 8 8.1433 0 4.4622 -2.5533 9.6691 -6.5371 11.5311 -0.9286 0.4341 -1.9972 0.4341 -2.9258 0C6.55332 19.8124 4 14.6055 4 10.1433Z" stroke-width="1.5"></path>
    <path id="Vector_2" fill="#2f0d51" d="m12 7.7162 -0.5281 0.53254c0.2924 0.28995 0.7638 0.28995 1.0562 0L12 7.7162Zm-0.5033 3.2084c-0.4178 -0.3175 -0.879 -0.7147 -1.2288 -1.13359 -0.36724 -0.43977 -0.5179 -0.7922 -0.5179 -1.03351h-1.5c0 0.77828 0.43177 1.4744 0.86649 1.995 0.45214 0.5415 1.01231 1.0166 1.47261 1.3664l0.9076 -1.1943ZM9.75 8.7575c0 -0.62225 0.2769 -0.88666 0.4997 -0.96758 0.2376 -0.08626 0.6936 -0.06539 1.2222 0.45882l1.0562 -1.06508c-0.8213 -0.81451 -1.8654 -1.1395 -2.79029 -0.80368C8.79816 6.72114 8.25 7.64674 8.25 8.7575h1.5Zm3.6609 3.3614c0.4603 -0.3498 1.0205 -0.8249 1.4726 -1.3664 0.4347 -0.5206 0.8665 -1.21673 0.8665 -1.99501h-1.5c0 0.24133 -0.1507 0.59377 -0.5179 1.03353 -0.3497 0.41898 -0.811 0.81608 -1.2287 1.13358l0.9075 1.1943ZM15.75 8.75749c0 -1.11076 -0.5482 -2.03635 -1.4878 -2.37751 -0.9249 -0.33582 -1.969 -0.01083 -2.7903 0.80368l1.0562 1.06508c0.5286 -0.52421 0.9846 -0.54508 1.2222 -0.45882 0.2228 0.08092 0.4997 0.34533 0.4997 0.96757h1.5Zm-5.1609 3.36141c0.3654 0.2777 0.7834 0.6313 1.4109 0.6313v-1.5c-0.0192 0 -0.0309 0.0015 -0.0842 -0.0277 -0.0855 -0.0467 -0.1927 -0.1259 -0.4191 -0.2979l-0.9076 1.1943Zm1.9143 -1.1943c-0.2265 0.172 -0.3337 0.2512 -0.4192 0.2979 -0.0533 0.0292 -0.065 0.0277 -0.0842 0.0277v1.5c0.6275 0 1.0455 -0.3536 1.4109 -0.6313l-0.9075 -1.1943Z" stroke-width="1.5"></path>
  </g>
</svg>