<svg xmlns="http://www.w3.org/2000/svg" fill="none" viewBox="0 0 24 24" id="Login-5--Streamline-Solar" height="24" width="24">
  <desc>
    Login 5 Streamline Icon: https://streamlinehq.com
  </desc>
  <g id="Line Duotone/Arrows Action/Login 5">
    <path id="Vector" stroke="#bb25a6" stroke-linecap="round" d="M9.00195 7c0.01211 -2.17503 0.10856 -3.35294 0.87694 -4.12132C10.7576 2 12.1718 2 15.0002 2h1c2.8284 0 4.2427 0 5.1213 0.87868 0.8787 0.87868 0.8787 2.29289 0.8787 5.12132v8c0 2.8284 0 4.2426 -0.8787 5.1213C20.2429 22 18.8286 22 16.0002 22h-1c-2.8284 0 -4.2426 0 -5.12131 -0.8787 -0.76838 -0.7684 -0.86483 -1.9463 -0.87694 -4.1213" stroke-width="1.5"></path>
    <path id="Vector_2" stroke="#2f0d51" stroke-linecap="round" stroke-linejoin="round" d="M2.00098 11.999H16.001m0 0 -3.5 -2.99998m3.5 2.99998 -3.5 3" stroke-width="1.5"></path>
  </g>
</svg>