<svg xmlns="http://www.w3.org/2000/svg" fill="none" viewBox="0 0 24 24" id="Volume-Cross--Streamline-Solar" height="24" width="24">
  <desc>
    Volume Cross Streamline Icon: https://streamlinehq.com
  </desc>
  <g id="Line Duotone/Video Audio Sound/Volume Cross">
    <path id="Vector" stroke="#bb25a6" d="M15.5 8.5V12c0 0.5319 -0.0354 1.4881 -0.0873 2.6054 -0.1402 3.0174 -0.2103 4.5261 -1.133 5.1746 -0.1769 0.1243 -0.375 0.2251 -0.5796 0.2949 -0.9674 0.3301 -2.1026 -0.3276 -4.2001 -1.7022C8.83333 17.9152 7.4 17 7 17" stroke-width="1.5"></path>
    <path id="Vector_2" stroke="#bb25a6" stroke-linecap="round" d="M20 18s1.5 -1.8 1.5 -6c0 -2.43342 -0.5035 -4.06118 -0.9271 -5" stroke-width="1.5"></path>
    <path id="Vector_3" stroke="#bb25a6" stroke-linecap="round" d="M18 15s0.5 -0.9 0.5 -3c0 -0.8619 -0.0842 -1.5216 -0.1835 -2" stroke-width="1.5"></path>
    <path id="Vector_4" stroke="#2f0d51" d="M7.0162 17.0417c-0.24801 -0.0419 -0.50405 -0.0419 -1.01612 -0.0419 -1.37391 0 -2.06087 0 -2.6602 -0.2773 -0.54758 -0.2533 -1.09515 -0.7686 -1.38134 -1.2997 -0.31323 -0.5814 -0.35007 -1.1858 -0.42375 -2.3946 -0.0218 -0.3576 -0.03479 -0.706 -0.03479 -1.0284s0.01299 -0.6708 0.03479 -1.0284c0.07368 -1.20885 0.11052 -1.81326 0.42375 -2.39461 0.28619 -0.53116 0.83376 -1.04637 1.38134 -1.29972 0.59933 -0.27728 1.28629 -0.27728 2.6602 -0.27728 0.51207 0 0.76811 0 1.01612 -0.04188 0.24518 -0.04141 0.48426 -0.11313 0.71175 -0.21353 0.23011 -0.10155 0.44386 -0.24249 0.87137 -0.52436l0.21893 -0.14436c2.54295 -1.67668 3.81445 -2.51503 4.88185 -2.15079 0.2046 0.06983 0.4027 0.17064 0.5796 0.29497 0.8353 0.58701 0.9719 1.87898 1.0943 4.35695" stroke-width="1.5"></path>
    <path id="Vector_5" stroke="#2f0d51" stroke-linecap="round" d="M22 2 2 22" stroke-width="1.5"></path>
  </g>
</svg>