<svg xmlns="http://www.w3.org/2000/svg" fill="none" viewBox="0 0 24 24" id="Sale-Square--Streamline-Solar" height="24" width="24">
  <desc>
    Sale Square Streamline Icon: https://streamlinehq.com
  </desc>
  <g id="Line Duotone/Money/Sale Square">
    <path id="Vector" stroke="#bb25a6" d="M2 12c0 -4.71405 0 -7.07107 1.46447 -8.53553C4.92893 2 7.28595 2 12 2c4.714 0 7.0711 0 8.5355 1.46447C22 4.92893 22 7.28595 22 12c0 4.714 0 7.0711 -1.4645 8.5355C19.0711 22 16.714 22 12 22c-4.71405 0 -7.07107 0 -8.53553 -1.4645C2 19.0711 2 16.714 2 12Z" stroke-width="1.5"></path>
    <path id="Vector_2" stroke="#2f0d51" stroke-linecap="round" d="m9 15 6 -6" stroke-width="1.5"></path>
    <path id="Vector_3" fill="#2f0d51" d="M15.5 14.5c0 0.5523 -0.4477 1 -1 1s-1 -0.4477 -1 -1 0.4477 -1 1 -1 1 0.4477 1 1Z" stroke-width="1.5"></path>
    <path id="Vector_4" fill="#2f0d51" d="M10.5 9.5c0 0.5523 -0.4477 1 -1 1 -0.55228 0 -1 -0.4477 -1 -1 0 -0.55228 0.44772 -1 1 -1 0.5523 0 1 0.44772 1 1Z" stroke-width="1.5"></path>
  </g>
</svg>