<svg xmlns="http://www.w3.org/2000/svg" fill="none" viewBox="0 0 24 24" id="Sale--Streamline-Solar" height="24" width="24">
  <desc>
    Sale Streamline Icon: https://streamlinehq.com
  </desc>
  <g id="Line Duotone/Money/Sale">
    <path id="Vector" stroke="#bb25a6" d="M9.78084 3.89027c0.56386 -0.48053 0.84576 -0.72079 1.14056 -0.86168 0.6818 -0.32588 1.4744 -0.32588 2.1562 0 0.2948 0.14089 0.5767 0.38115 1.1406 0.86168 0.2244 0.19125 0.3366 0.28688 0.4565 0.3672 0.2747 0.18413 0.5832 0.31192 0.9076 0.37597 0.1416 0.02795 0.2885 0.03968 0.5825 0.06313 0.7385 0.05893 1.1077 0.0884 1.4158 0.19721 0.7125 0.25168 1.273 0.81213 1.5247 1.52466 0.1088 0.30807 0.1382 0.67732 0.1972 1.41582 0.0234 0.29393 0.0351 0.44089 0.0631 0.58243 0.064 0.32445 0.1918 0.63296 0.376 0.90768 0.0803 0.11984 0.1759 0.23205 0.3672 0.45647 0.4805 0.56386 0.7208 0.84586 0.8617 1.14056 0.3258 0.6818 0.3258 1.4744 0 2.1562 -0.1409 0.2948 -0.3812 0.5767 -0.8617 1.1406 -0.1913 0.2244 -0.2869 0.3366 -0.3672 0.4565 -0.1842 0.2747 -0.312 0.5832 -0.376 0.9077 -0.028 0.1415 -0.0397 0.2885 -0.0631 0.5824 -0.059 0.7385 -0.0884 1.1077 -0.1972 1.4158 -0.2517 0.7125 -0.8122 1.273 -1.5247 1.5247 -0.3081 0.1088 -0.6773 0.1382 -1.4158 0.1972 -0.294 0.0234 -0.4409 0.0352 -0.5825 0.0631 -0.3244 0.0641 -0.6329 0.1918 -0.9076 0.376 -0.1199 0.0803 -0.2321 0.1759 -0.4565 0.3672 -0.5639 0.4805 -0.8458 0.7208 -1.1406 0.8617 -0.6818 0.3258 -1.4744 0.3258 -2.1562 0 -0.2948 -0.1409 -0.5767 -0.3812 -1.14056 -0.8617 -0.22442 -0.1913 -0.33664 -0.2869 -0.45648 -0.3672 -0.27471 -0.1842 -0.58322 -0.3119 -0.90767 -0.376 -0.14154 -0.0279 -0.2885 -0.0397 -0.58243 -0.0631 -0.7385 -0.059 -1.10776 -0.0884 -1.41582 -0.1972 -0.71253 -0.2517 -1.27299 -0.8122 -1.52466 -1.5247 -0.10881 -0.3081 -0.13828 -0.6773 -0.19721 -1.4158 -0.02346 -0.2939 -0.03518 -0.4409 -0.06313 -0.5824 -0.06405 -0.3245 -0.19184 -0.633 -0.37597 -0.9077 -0.08032 -0.1199 -0.17595 -0.2321 -0.3672 -0.4565 -0.48053 -0.5639 -0.72079 -0.8458 -0.86169 -1.1406 -0.32587 -0.6818 -0.32587 -1.4744 0 -2.1562 0.1409 -0.2948 0.38116 -0.5767 0.86169 -1.14056 0.19125 -0.22442 0.28688 -0.33663 0.3672 -0.45647 0.18413 -0.27472 0.31192 -0.58323 0.37597 -0.90768 0.02795 -0.14154 0.03967 -0.2885 0.06313 -0.58243 0.05893 -0.7385 0.0884 -1.10775 0.19721 -1.41582 0.25167 -0.71253 0.81213 -1.27298 1.52466 -1.52466 0.30806 -0.10881 0.67732 -0.13828 1.41582 -0.19721 0.29393 -0.02345 0.44089 -0.03518 0.58243 -0.06313 0.32445 -0.06405 0.63296 -0.19184 0.90767 -0.37597 0.11985 -0.08032 0.23206 -0.17595 0.45648 -0.3672Z" stroke-width="1.5"></path>
    <path id="Vector_2" stroke="#2f0d51" stroke-linecap="round" d="m9 15 6 -6" stroke-width="1.5"></path>
    <path id="Vector_3" fill="#2f0d51" d="M15.5 14.5c0 0.5523 -0.4477 1 -1 1s-1 -0.4477 -1 -1 0.4477 -1 1 -1 1 0.4477 1 1Z" stroke-width="1.5"></path>
    <path id="Vector_4" fill="#2f0d51" d="M10.5 9.5c0 0.5523 -0.4477 1 -1 1 -0.55228 0 -1 -0.4477 -1 -1 0 -0.55228 0.44772 -1 1 -1 0.5523 0 1 0.44772 1 1Z" stroke-width="1.5"></path>
  </g>
</svg>