<svg xmlns="http://www.w3.org/2000/svg" fill="none" viewBox="0 0 24 24" id="Qr-Code--Streamline-Solar" height="24" width="24">
  <desc>
    QR Code Streamline Icon: https://streamlinehq.com
  </desc>
  <g id="Line Duotone/Security/QR Code">
    <path id="Vector" fill="#bb25a6" d="M16.5 6.25c0 -0.51541 0 -0.77311 0.1291 -0.95507 0.0456 -0.06421 0.1016 -0.12027 0.1658 -0.16582C16.9769 5 17.2346 5 17.75 5s0.7731 0 0.9551 0.12911c0.0642 0.04555 0.1202 0.10161 0.1658 0.16582C19 5.47689 19 5.73459 19 6.25c0 0.51541 0 0.77311 -0.1291 0.95507 -0.0456 0.06421 -0.1016 0.12027 -0.1658 0.16582C18.5231 7.5 18.2654 7.5 17.75 7.5s-0.7731 0 -0.9551 -0.12911c-0.0642 -0.04555 -0.1202 -0.10161 -0.1658 -0.16582C16.5 7.02311 16.5 6.76541 16.5 6.25Z" stroke-width="1.5"></path>
    <path id="Vector_2" fill="#bb25a6" d="M12.75 22c0 0.4142 0.3358 0.75 0.75 0.75s0.75 -0.3358 0.75 -0.75h-1.5Zm0 -3v3h1.5v-3h-1.5Z" stroke-width="1.5"></path>
    <path id="Vector_3" fill="#bb25a6" d="M22.75 13.5c0 -0.4142 -0.3358 -0.75 -0.75 -0.75s-0.75 0.3358 -0.75 0.75h1.5Zm0 3.5v-3.5h-1.5V17h1.5Z" stroke-width="1.5"></path>
    <path id="Vector_4" fill="#bb25a6" d="M5 6.25c0 -0.51541 0 -0.77311 0.12911 -0.95507 0.04555 -0.06421 0.10161 -0.12027 0.16582 -0.16582C5.47689 5 5.73459 5 6.25 5c0.51541 0 0.77311 0 0.95507 0.12911 0.06421 0.04555 0.12027 0.10161 0.16582 0.16582C7.5 5.47689 7.5 5.73459 7.5 6.25c0 0.51541 0 0.77311 -0.12911 0.95507 -0.04555 0.06421 -0.10161 0.12027 -0.16582 0.16582C7.02311 7.5 6.76541 7.5 6.25 7.5c-0.51541 0 -0.77311 0 -0.95507 -0.12911 -0.06421 -0.04555 -0.12027 -0.10161 -0.16582 -0.16582C5 7.02311 5 6.76541 5 6.25Z" stroke-width="1.5"></path>
    <path id="Vector_5" fill="#bb25a6" d="M5 17.75c0 -0.5154 0 -0.7731 0.12911 -0.9551 0.04555 -0.0642 0.10161 -0.1202 0.16582 -0.1658 0.18196 -0.1291 0.43966 -0.1291 0.95507 -0.1291 0.51541 0 0.77311 0 0.95507 0.1291 0.06421 0.0456 0.12027 0.1016 0.16582 0.1658 0.12911 0.182 0.12911 0.4397 0.12911 0.9551s0 0.7731 -0.12911 0.9551c-0.04555 0.0642 -0.10161 0.1202 -0.16582 0.1658C7.02311 19 6.76541 19 6.25 19c-0.51541 0 -0.77311 0 -0.95507 -0.1291 -0.06421 -0.0456 -0.12027 -0.1016 -0.16582 -0.1658C5 18.5231 5 18.2654 5 17.75Z" stroke-width="1.5"></path>
    <path id="Vector_6" fill="#bb25a6" d="M16 17.75c0 -0.7022 0 -1.0533 0.1685 -1.3056 0.073 -0.1092 0.1667 -0.2029 0.2759 -0.2759C16.6967 16 17.0478 16 17.75 16s1.0533 0 1.3056 0.1685c0.1092 0.073 0.2029 0.1667 0.2759 0.2759 0.1685 0.2523 0.1685 0.6034 0.1685 1.3056s0 1.0533 -0.1685 1.3056c-0.073 0.1092 -0.1667 0.2029 -0.2759 0.2759 -0.2523 0.1685 -0.6034 0.1685 -1.3056 0.1685s-1.0533 0 -1.3056 -0.1685c-0.1092 -0.073 -0.2029 -0.1667 -0.2759 -0.2759C16 18.8033 16 18.4522 16 17.75Z" stroke-width="1.5"></path>
    <path id="Vector_7" stroke="#2f0d51" d="M2 16.9c0 -1.3094 0 -1.9641 0.29472 -2.445 0.16491 -0.2691 0.39117 -0.4954 0.66028 -0.6603C3.43594 13.5 4.09063 13.5 5.4 13.5h1.1c1.88562 0 2.82843 0 3.41421 0.5858C10.5 14.6716 10.5 15.6144 10.5 17.5v1.1c0 1.3094 0 1.9641 -0.2947 2.445 -0.1649 0.2691 -0.39119 0.4954 -0.6603 0.6603C9.06406 22 8.40937 22 7.1 22c-1.96406 0 -2.94609 0 -3.6675 -0.4421 -0.40366 -0.2473 -0.74305 -0.5867 -0.99042 -0.9904C2 19.8461 2 18.8641 2 16.9Z" stroke-width="1.5"></path>
    <path id="Vector_8" stroke="#2f0d51" d="M13.5 5.4c0 -1.30937 0 -1.96406 0.2947 -2.445 0.1649 -0.26911 0.3912 -0.49537 0.6603 -0.66028C14.9359 2 15.5906 2 16.9 2c1.9641 0 2.9461 0 3.6675 0.44208 0.4037 0.24737 0.7431 0.58676 0.9904 0.99042C22 4.15391 22 5.13594 22 7.1c0 1.30937 0 1.96406 -0.2947 2.445 -0.1649 0.26911 -0.3912 0.4954 -0.6603 0.6603 -0.4809 0.2947 -1.1356 0.2947 -2.445 0.2947h-1.1c-1.8856 0 -2.8284 0 -3.4142 -0.58579C13.5 9.32843 13.5 8.38562 13.5 6.5V5.4Z" stroke-width="1.5"></path>
    <path id="Vector_9" stroke="#2f0d51" d="M19 13.5h-2c-1.4045 0 -2.1067 0 -2.6111 0.3371 -0.2184 0.1459 -0.4059 0.3334 -0.5518 0.5518C13.5 14.8933 13.5 15.5955 13.5 17" stroke-width="1.5"></path>
    <path id="Vector_10" stroke="#2f0d51" stroke-linejoin="round" d="M17 22h2c0.9319 0 1.3978 0 1.7654 -0.1522 0.49 -0.203 0.8794 -0.5924 1.0824 -1.0824C22 20.3978 22 19.9319 22 19" stroke-width="1.5"></path>
    <path id="Vector_11" stroke="#2f0d51" d="M2 7.1c0 -1.96406 0 -2.94609 0.44208 -3.6675 0.24737 -0.40366 0.58676 -0.74305 0.99042 -0.99042C4.15391 2 5.13594 2 7.1 2c1.30937 0 1.96406 0 2.445 0.29472 0.26911 0.16491 0.4954 0.39117 0.6603 0.66028 0.2947 0.48094 0.2947 1.13563 0.2947 2.445v1.1c0 1.88562 0 2.82843 -0.58579 3.41421C9.32843 10.5 8.38562 10.5 6.5 10.5H5.4c-1.30937 0 -1.96406 0 -2.445 -0.2947 -0.26911 -0.1649 -0.49537 -0.39119 -0.66028 -0.6603C2 9.06406 2 8.40937 2 7.1Z" stroke-width="1.5"></path>
  </g>
</svg>