<svg xmlns="http://www.w3.org/2000/svg" fill="none" viewBox="0 0 24 24" id="Call-Cancel-Rounded--Streamline-Solar" height="24" width="24">
  <desc>
    Call Cancel Rounded Streamline Icon: https://streamlinehq.com
  </desc>
  <g id="Line Duotone/Call/Call Cancel Rounded">
    <path id="Vector" stroke="#bb25a6" stroke-linecap="round" d="m10.0376 5.31617 0.649 1.16293c0.5857 1.04948 0.3506 2.42622 -0.5719 3.3487 0 0 -1.11882 1.119 0.9098 3.1477 2.028 2.028 3.1477 0.9098 3.1477 0.9098 0.9225 -0.9225 2.2992 -1.1576 3.3487 -0.5719l1.1629 0.649c1.5848 0.8844 1.7719 3.1068 0.379 4.4998 -0.837 0.837 -1.8624 1.4883 -2.9959 1.5312 -1.9081 0.0724 -5.1486 -0.4105 -8.3992 -3.6611 -3.25057 -3.2506 -3.73349 -6.49108 -3.66115 -8.39921 0.04297 -1.13349 0.69425 -2.15886 1.53126 -2.99586 1.39295 -1.39295 3.61536 -1.20579 4.49979 0.37894Z" stroke-width="1.5"></path>
    <path id="Vector_2" stroke="#2f0d51" stroke-linecap="round" d="M20 4.00002 16 8m0 -4 4 3.99998" stroke-width="1.5"></path>
  </g>
</svg>