<svg xmlns="http://www.w3.org/2000/svg" fill="none" viewBox="0 0 24 24" id="Tag--Streamline-Solar" height="24" width="24">
  <desc>
    Tag Streamline Icon: https://streamlinehq.com
  </desc>
  <g id="Line Duotone/Money/Tag">
    <path id="Vector" stroke="#bb25a6" d="M10.021 10.2931c0.781 -0.78103 0.781 -2.04736 0 -2.82841 -0.78109 -0.78105 -2.04742 -0.78105 -2.82847 0 -0.78104 0.78105 -0.78104 2.04738 0 2.82841 0.78105 0.7811 2.04738 0.7811 2.82847 0Z" stroke-width="1.5"></path>
    <path id="Vector_2" stroke="#bb25a6" stroke-linecap="round" d="m11.542 18.5002 6.9791 -6.9792" stroke-width="1.5"></path>
    <path id="Vector_3" stroke="#2f0d51" d="M4.72848 16.1369c-1.54553 -1.5455 -2.3183 -2.3183 -2.60584 -3.3209 -0.28755 -1.0026 -0.04181 -2.0675 0.44967 -4.19725l0.28343 -1.22818c0.41348 -1.79176 0.62023 -2.68765 1.2337 -3.30113 0.61348 -0.61347 1.50937 -0.82022 3.30113 -1.2337l1.22818 -0.28343c2.12975 -0.49148 3.19465 -0.73722 4.19725 -0.44967 1.0026 0.28754 1.7754 1.06031 3.3209 2.60584l1.8296 1.82964C20.6555 9.24711 22 10.5916 22 12.2623s-1.3445 3.0152 -4.0335 5.7042S13.933 22 12.2623 22s-3.01519 -1.3445 -5.70418 -4.0335l-1.82964 -1.8296Z" stroke-width="1.5"></path>
  </g>
</svg>