<svg xmlns="http://www.w3.org/2000/svg" fill="none" viewBox="0 0 24 24" id="Ticket-Sale--Streamline-Solar" height="24" width="24">
  <desc>
    Ticket Sale Streamline Icon: https://streamlinehq.com
  </desc>
  <g id="Line Duotone/Money/Ticket Sale">
    <path id="Vector" stroke="#bb25a6" d="M14.005 4H9.99502C6.21439 4 4.32407 4 3.14958 5.17157c-0.80867 0.80666 -1.06055 1.95182 -1.139 3.8179 -0.01556 0.37007 -0.02334 0.55511 0.04576 0.67855 0.06911 0.12345 0.34499 0.27752 0.89674 0.58568 0.61278 0.3422 1.02699 0.996 1.02699 1.7463s-0.41421 1.4041 -1.02699 1.7463c-0.55175 0.3082 -0.82763 0.4622 -0.89674 0.5857 -0.0691 0.1234 -0.06132 0.3085 -0.04576 0.6785 0.07845 1.8661 0.33033 3.0113 1.139 3.8179C4.32407 20 6.21439 20 9.99502 20H14.005c3.7806 0 5.6709 0 6.8454 -1.1716 0.8087 -0.8066 1.0606 -1.9518 1.139 -3.8179 0.0156 -0.37 0.0234 -0.5551 -0.0457 -0.6785 -0.0691 -0.1235 -0.345 -0.2775 -0.8968 -0.5857 -0.6128 -0.3422 -1.027 -0.996 -1.027 -1.7463s0.4142 -1.4041 1.027 -1.7463c0.5518 -0.30816 0.8277 -0.46223 0.8968 -0.58567 0.0691 -0.12345 0.0613 -0.30849 0.0457 -0.67856 -0.0784 -1.86608 -0.3303 -3.01124 -1.139 -3.8179C19.6759 4 17.7856 4 14.005 4Z" stroke-width="1.5"></path>
    <path id="Vector_2" stroke="#2f0d51" stroke-linecap="round" d="m9 15 6 -6" stroke-width="1.5"></path>
    <path id="Vector_3" fill="#2f0d51" d="M15.5 14.5c0 0.5523 -0.4477 1 -1 1s-1 -0.4477 -1 -1 0.4477 -1 1 -1 1 0.4477 1 1Z" stroke-width="1.5"></path>
    <path id="Vector_4" fill="#2f0d51" d="M10.5 9.5c0 0.5523 -0.4477 1 -1 1 -0.55228 0 -1 -0.4477 -1 -1 0 -0.55228 0.44772 -1 1 -1 0.5523 0 1 0.44772 1 1Z" stroke-width="1.5"></path>
  </g>
</svg>