<svg xmlns="http://www.w3.org/2000/svg" fill="none" viewBox="0 0 24 24" id="User-Check-Rounded--Streamline-Solar" height="24" width="24">
  <desc>
    User Check Rounded Streamline Icon: https://streamlinehq.com
  </desc>
  <g id="Line Duotone/Users/User Check Rounded">
    <path id="Vector" stroke="#bb25a6" d="M14 20.8344c-0.6337 0.1077 -1.305 0.1656 -2 0.1656 -3.86599 0 -7 -1.7909 -7 -4 0 -2.2091 3.13401 -4 7 -4 1.7135 0 3.2832 0.3518 4.5 0.9359" stroke-width="1.5"></path>
    <path id="Vector_2" stroke="#2f0d51" d="M12 10c2.2091 0 4 -1.79086 4 -4s-1.7909 -4 -4 -4C9.79086 2 8 3.79086 8 6s1.79086 4 4 4Z" stroke-width="1.5"></path>
    <path id="Vector_3" stroke="#2f0d51" d="M17 22c2.2091 0 4 -1.7909 4 -4 0 -2.2091 -1.7909 -4 -4 -4 -2.2091 0 -4 1.7909 -4 4 0 2.2091 1.7909 4 4 4Z" stroke-width="1.5"></path>
    <path id="Vector_4" stroke="#2f0d51" stroke-linecap="round" stroke-linejoin="round" d="m15.6665 18.0002 0.8335 1 1.8332 -1.8889" stroke-width="1.5"></path>
  </g>
</svg>