<svg xmlns="http://www.w3.org/2000/svg" fill="none" viewBox="0 0 24 24" id="Videocamera--Streamline-Solar" height="24" width="24">
  <desc>
    Videocamera Streamline Icon: https://streamlinehq.com
  </desc>
  <g id="Line Duotone/Video Audio Sound/Videocamera">
    <path id="Vector" stroke="#bb25a6" d="m17 9.50019 0.6584 -0.32918c1.9458 -0.97294 2.9188 -1.45941 3.6302 -1.01974C22 8.59094 22 9.67872 22 11.8543v0.2918c0 2.1756 0 3.2633 -0.7114 3.703 -0.7114 0.4397 -1.6844 -0.0468 -3.6302 -1.0197L17 14.5002V9.50019Z" stroke-width="1.5"></path>
    <path id="Vector_2" stroke="#2f0d51" d="M2 11.5c0 -3.28748 0 -4.93122 0.90796 -6.03757 0.16622 -0.20254 0.35193 -0.38825 0.55447 -0.55447C4.56878 4 6.21252 4 9.5 4c3.2875 0 4.9312 0 6.0376 0.90796 0.2025 0.16622 0.3882 0.35193 0.5544 0.55447C17 6.56878 17 8.21252 17 11.5v1c0 3.2875 0 4.9312 -0.908 6.0376 -0.1662 0.2025 -0.3519 0.3882 -0.5544 0.5544C14.4312 20 12.7875 20 9.5 20c-3.28748 0 -4.93122 0 -6.03757 -0.908 -0.20254 -0.1662 -0.38825 -0.3519 -0.55447 -0.5544C2 17.4312 2 15.7875 2 12.5v-1Z" stroke-width="1.5"></path>
  </g>
</svg>