<svg xmlns="http://www.w3.org/2000/svg" fill="none" viewBox="0 0 24 24" id="Volume-Loud--Streamline-Solar" height="24" width="24">
  <desc>
    Volume Loud Streamline Icon: https://streamlinehq.com
  </desc>
  <g id="Line Duotone/Video Audio Sound/Volume Loud">
    <path id="Vector" stroke="#bb25a6" stroke-linecap="round" d="M20 6s1.5 1.8 1.5 6 -1.5 6 -1.5 6" stroke-width="1.5"></path>
    <path id="Vector_2" stroke="#bb25a6" stroke-linecap="round" d="M18 9s0.5 0.9 0.5 3 -0.5 3 -0.5 3" stroke-width="1.5"></path>
    <path id="Vector_3" stroke="#2f0d51" d="M1.53479 10.9714c0.07368 -1.20885 0.11052 -1.81326 0.42375 -2.39461 0.28619 -0.53116 0.83376 -1.04637 1.38134 -1.29972 0.59933 -0.27728 1.28629 -0.27728 2.6602 -0.27728 0.51207 0 0.76811 0 1.01612 -0.04188 0.24518 -0.04141 0.48426 -0.11313 0.71175 -0.21353 0.23011 -0.10155 0.44386 -0.24249 0.87137 -0.52436l0.21893 -0.14436c2.54295 -1.67668 3.81445 -2.51503 4.88185 -2.15079 0.2046 0.06983 0.4027 0.17064 0.5796 0.29497 0.9227 0.64845 0.9928 2.15715 1.133 5.17456 0.0519 1.1173 0.0873 2.0735 0.0873 2.6054 0 0.5319 -0.0354 1.4881 -0.0873 2.6054 -0.1402 3.0174 -0.2103 4.5261 -1.133 5.1745 -0.1769 0.1244 -0.375 0.2252 -0.5796 0.295 -1.0674 0.3642 -2.3389 -0.4741 -4.88185 -2.1508l-0.21893 -0.1443c-0.42751 -0.2819 -0.64126 -0.4229 -0.87137 -0.5244 -0.22749 -0.1004 -0.46657 -0.1721 -0.71175 -0.2135 -0.24801 -0.0419 -0.50405 -0.0419 -1.01612 -0.0419 -1.37391 0 -2.06087 0 -2.6602 -0.2773 -0.54758 -0.2533 -1.09515 -0.7686 -1.38134 -1.2997 -0.31323 -0.5814 -0.35007 -1.1858 -0.42375 -2.3946 -0.0218 -0.3576 -0.03479 -0.706 -0.03479 -1.0284s0.01299 -0.6708 0.03479 -1.0284Z" stroke-width="1.5"></path>
  </g>
</svg>